PathFileType	4	(X/Y/Z)	Walk10.trc
DataRate	CameraRate	NumFrames	NumMarkers	Units	OrigDataRate	OrigDataStartFrame	OrigNumFrames
200.000000	200.000000	8	59	mm	200.000000	313	470
Frame#	Times		RCAR		LElbow		LFA1		LWRU		LTH3		LLFC		LTB1		LTB3		RTH2		LCAR		LTH2		LMT5		LMT1		LToe		LASI		LBHD		LUA1		C7		RFA1		RWRU		RPSI		T10		LTH4		LPSI		LACR1		LLMAL		RBHD		RUA1		LElbowM		LFHD		RElbow		LTB2		LWRR		RACR1		RFHD		RToe		RElbowM		RTB2		RLFC		RCAL		RMT5		RLMAL		LMFC		RTB1		RTH3		STRN		RTB4		RASI		RTB3		RMT1		RMFC		LTB4		RTH4		LTH1		LCAL		LMMAL		RMMAL		RTH1		RWRR
			X1	Y1	Z1	X2	Y2	Z2	X3	Y3	Z3	X4	Y4	Z4	X5	Y5	Z5	X6	Y6	Z6	X7	Y7	Z7	X8	Y8	Z8	X9	Y9	Z9	X10	Y10	Z10	X11	Y11	Z11	X12	Y12	Z12	X13	Y13	Z13	X14	Y14	Z14	X15	Y15	Z15	X16	Y16	Z16	X17	Y17	Z17	X18	Y18	Z18	X19	Y19	Z19	X20	Y20	Z20	X21	Y21	Z21	X22	Y22	Z22	X23	Y23	Z23	X24	Y24	Z24	X25	Y25	Z25	X26	Y26	Z26	X27	Y27	Z27	X28	Y28	Z28	X29	Y29	Z29	X30	Y30	Z30	X31	Y31	Z31	X32	Y32	Z32	X33	Y33	Z33	X34	Y34	Z34	X35	Y35	Z35	X36	Y36	Z36	X37	Y37	Z37	X38	Y38	Z38	X39	Y39	Z39	X40	Y40	Z40	X41	Y41	Z41	X42	Y42	Z42	X43	Y43	Z43	X44	Y44	Z44	X45	Y45	Z45	X46	Y46	Z46	X47	Y47	Z47	X48	Y48	Z48	X49	Y49	Z49	X50	Y50	Z50	X51	Y51	Z51	X52	Y52	Z52	X53	Y53	Z53	X54	Y54	Z54	X55	Y55	Z55	X56	Y56	Z56	X57	Y57	Z57	X58	Y58	Z58	X59	Y59	Z59

313	1.565	423.43	869.12	428.72	271.18	1134.9	-182.38	294.71	984.94	-187.44	328.34	856.02	-171.88	356.03	615.49	-29.683	355.28	512.11	-13.455	392.96	376.51	69.871	352.68	194.88	82.794	433.94	714.26	282.65	399	816.21	-183.64	414.98	717.2	-26.302	386.57	22.464	13.872	437.11	40.073	95.788	490.47	30.59	78.461	373.58	1039	-22.73	334.15	1654.7	12.152	303.88	1288.9	-162.75	270.85	1518.4	89.052	301.27	1009.7	424.9	358.1	885.86	423.98	158.75	1026.6	153.94	156.99	1295.6	94.733	347.98	705.51	-49.655	159.41	1025.6	75.694	345.18	1463.5	-71.847	289.24	70.534	49.216	336.9	1667.1	153.46	294.08	1308.2	359.21	238.4	1128.2	-112.36	516.6	1644.9	54.23	253.99	1157.4	403.6	349.88	289.72	4.9039	399.56	868.7	-130.37	181	1437.6	221.99	516.8	1650.4	130.8	195.78	60.564	205.21	228.57	1137.5	325.59	251.04	331.01	267.16	373.99	500.15	290.92	24.669	215.47	166.45	113.09	97.757	250.41	82.35	204.07	223.21	368.05	524.55	116.26	348.92	375.62	211.53	379.02	608.34	300.03	438.22	1253.8	107.35	278.27	318.29	203.8	364.93	1043.7	268.23	206.49	260.37	192.61	159.28	80.661	179.55	406.18	511.83	162.02	373.67	288.85	77.697	366.34	701.34	309.68	342.46	797.3	-67.092	231.81	29.417	95.999	320.17	93.334	128.98	131.7	199.97	148.68	346.4	796.05	310.56	412.59	906.35	374.39
314	1.57	424.09	867.96	429.51	278.92	1135.8	-182.67	303.97	985.96	-187.42	338.94	857.46	-171.57	358.27	615.73	-29.622	356.45	512.23	-13.389	393.61	376.42	69.835	352.97	194.86	82.74	442.54	716.62	282.13	410.06	818.45	-183.27	418.18	716.85	-26.199	386.54	22.447	13.837	437.11	40.071	95.765	490.47	30.588	78.459	379.1	1039.9	-22.859	339.8	1655.4	12.22	310.69	1290	-162.82	276.45	1519.1	89.129	303.65	1010.1	424.99	359.03	885.57	424.46	164.37	1027.3	154.11	162.6	1296.3	94.515	351.22	705.81	-49.609	164.84	1026.4	75.654	351	1464.6	-71.69	289.22	70.657	49.228	342.67	1667.8	153.52	298.87	1308.7	359.13	246.1	1128.8	-112.62	522.28	1645.5	54.15	258.07	1158.1	403.23	350.26	289.76	4.9002	409.98	870.95	-130.03	186.48	1438.2	221.8	522.54	1651	130.72	214.29	60.017	205.86	232.83	1138.4	325.29	264.46	330.83	267.3	385.07	501.8	290.8	39.47	211.24	167.01	130.79	95.845	251.11	97.675	201.23	223.68	369.28	524.5	116.29	361.29	377.35	212.26	388.86	610.1	299.97	443.72	1254.5	107.29	291.71	318.55	203.82	370.76	1044.7	267.96	220.78	259.55	192.84	177.27	79.579	180.26	416.61	513.92	161.84	374.14	288.8	77.665	375.17	702.94	309.67	346.59	797.59	-67.107	231.85	29.465	96.085	320.22	93.407	128.96	146.95	197.95	149.17	354.05	797.53	310.56	413.89	905.24	375.09
315	1.575	424.75	866.83	430.3	286.63	1136.7	-182.96	313.22	986.98	-187.4	349.55	858.92	-171.22	360.47	615.95	-29.548	357.6	512.36	-13.317	394.25	376.33	69.805	353.25	194.85	82.688	451.06	718.95	281.59	421.14	820.73	-182.87	421.35	716.48	-26.111	386.51	22.431	13.8	437.1	40.07	95.743	490.47	30.585	78.46	384.53	1040.8	-22.946	345.43	1656	12.306	317.47	1291.1	-162.89	282.05	1519.7	89.219	306.04	1010.5	425.11	359.98	885.31	424.95	169.98	1028	154.31	168.2	1296.9	94.322	354.41	706.09	-49.544	170.26	1027.2	75.642	356.82	1465.7	-71.518	289.21	70.786	49.242	348.43	1668.5	153.6	303.66	1309.2	359.07	253.76	1129.5	-112.89	527.94	1646	54.084	262.14	1158.8	402.89	350.63	289.8	4.9023	420.4	873.24	-129.68	191.97	1438.8	221.63	528.27	1651.6	130.66	233.03	59.402	206.49	237.07	1139.3	325.02	277.92	330.55	267.4	396.03	503.43	290.64	54.486	206.73	167.53	148.73	93.788	251.78	113.18	198.17	224.11	370.49	524.46	116.34	373.65	379.03	212.97	398.61	611.86	299.9	449.22	1255.2	107.22	305.19	318.74	203.79	376.63	1045.7	267.63	235.16	258.6	193.01	195.49	78.384	180.94	426.92	516.01	161.62	374.6	288.76	77.635	383.93	704.53	309.67	350.68	797.84	-67.109	231.89	29.521	96.17	320.27	93.48	128.95	162.38	195.76	149.62	361.63	798.98	310.57	415.19	904.17	375.81
316	1.58	425.43	865.73	431.11	294.29	1137.5	-183.26	322.45	987.99	-187.36	360.17	860.39	-170.84	362.64	616.16	-29.466	358.73	512.49	-13.243	394.88	376.26	69.783	353.53	194.83	82.643	459.48	721.25	281.04	432.22	823.05	-182.45	424.52	716.09	-26.037	386.48	22.417	13.762	437.1	40.069	95.72	490.47	30.582	78.461	389.88	1041.7	-22.998	351.05	1656.6	12.407	324.22	1292.1	-162.98	287.63	1520.4	89.323	308.42	1010.9	425.25	360.94	885.08	425.47	175.58	1028.7	154.52	173.8	1297.5	94.155	357.57	706.35	-49.462	175.68	1027.9	75.661	362.63	1466.7	-71.33	289.19	70.917	49.258	354.18	1669.1	153.69	308.44	1309.7	359.04	261.39	1130.1	-113.17	533.6	1646.5	54.031	266.21	1159.5	402.58	351	289.85	4.9093	430.83	875.58	-129.32	197.46	1439.4	221.49	534	1652.1	130.61	251.99	58.73	207.09	241.31	1140.1	324.79	291.39	330.16	267.49	406.88	505.04	290.46	69.724	201.95	168.01	166.9	91.599	252.42	128.87	194.89	224.51	371.69	524.43	116.39	385.99	380.64	213.63	408.26	613.61	299.81	454.73	1255.8	107.14	318.7	318.85	203.73	382.51	1046.6	267.24	249.65	257.54	193.12	213.94	77.089	181.6	437.1	518.08	161.36	375.07	288.72	77.607	392.61	706.1	309.68	354.72	798.07	-67.099	231.93	29.589	96.251	320.32	93.554	128.95	177.98	193.38	150.05	369.15	800.38	310.59	416.49	903.12	376.54
317	1.585	426.12	864.66	431.92	301.91	1138.4	-183.57	331.67	988.99	-187.32	370.79	861.87	-170.42	364.79	616.36	-29.377	359.85	512.62	-13.168	395.5	376.18	69.771	353.8	194.83	82.603	467.81	723.51	280.47	443.3	825.4	-182.01	427.67	715.67	-25.977	386.44	22.403	13.721	437.1	40.068	95.697	490.47	30.579	78.464	395.16	1042.5	-23.019	356.67	1657.2	12.525	330.94	1293.1	-163.06	293.22	1520.9	89.439	310.82	1011.4	425.42	361.92	884.86	426	181.18	1029.3	154.74	179.39	1298	94.018	360.69	706.59	-49.365	181.09	1028.6	75.714	368.43	1467.7	-71.127	289.18	71.049	49.275	359.92	1669.7	153.8	313.22	1310.2	359.02	268.98	1130.7	-113.46	539.24	1647	53.99	270.26	1160.1	402.3	351.37	289.9	4.9202	441.25	877.95	-128.95	202.97	1439.9	221.38	539.72	1652.6	130.57	271.16	58.015	207.67	245.53	1140.9	324.58	304.87	329.68	267.55	417.59	506.62	290.26	85.191	196.93	168.45	185.28	89.291	253.03	144.75	191.42	224.87	372.87	524.4	116.44	398.31	382.19	214.23	417.8	615.34	299.72	460.23	1256.4	107.05	332.24	318.88	203.65	388.41	1047.5	266.8	264.24	256.37	193.2	232.6	75.703	182.22	447.14	520.12	161.06	375.53	288.68	77.582	401.22	707.66	309.7	358.72	798.27	-67.077	231.97	29.671	96.326	320.36	93.628	128.94	193.75	190.85	150.43	376.63	801.72	310.62	417.81	902.1	377.29
318	1.59	426.83	863.62	432.74	309.49	1139.1	-183.89	340.87	989.97	-187.27	381.42	863.36	-169.97	366.92	616.55	-29.285	360.96	512.75	-13.092	396.11	376.11	69.772	354.07	194.82	82.568	476.03	725.72	279.89	454.38	827.78	-181.54	430.81	715.23	-25.929	386.41	22.391	13.679	437.1	40.067	95.675	490.48	30.575	78.469	400.38	1043.3	-23.02	362.28	1657.7	12.657	337.64	1294.1	-163.16	298.81	1521.5	89.568	313.23	1011.8	425.6	362.94	884.65	426.55	186.76	1029.9	154.97	184.97	1298.5	93.912	363.78	706.81	-49.256	186.5	1029.2	75.805	374.23	1468.6	-70.911	289.18	71.182	49.294	365.66	1670.3	153.92	317.98	1310.6	359.03	276.53	1131.2	-113.76	544.88	1647.4	53.962	274.31	1160.7	402.05	351.75	289.94	4.9344	451.67	880.35	-128.56	208.48	1440.4	221.28	545.42	1653	130.55	290.53	57.269	208.22	249.74	1141.7	324.4	318.36	329.1	267.6	428.17	508.16	290.05	100.89	191.67	168.85	203.87	86.876	253.6	160.81	187.75	225.2	374.05	524.38	116.5	410.6	383.66	214.75	427.23	617.04	299.61	465.75	1256.9	106.95	345.81	318.83	203.55	394.32	1048.3	266.32	278.93	255.09	193.25	251.47	74.239	182.81	457.06	522.12	160.71	375.98	288.65	77.562	409.74	709.2	309.73	362.68	798.44	-67.047	232	29.769	96.392	320.39	93.702	128.94	209.69	188.17	150.77	384.06	803.01	310.65	419.14	901.1	378.05
319	1.595	427.57	862.6	433.56	317.04	1139.9	-184.22	350.06	990.93	-187.23	392.04	864.84	-169.49	369.04	616.71	-29.191	362.08	512.87	-13.017	396.71	376.04	69.786	354.33	194.82	82.538	484.15	727.87	279.3	465.45	830.18	-181.05	433.96	714.77	-25.891	386.37	22.378	13.636	437.1	40.065	95.653	490.49	30.571	78.474	405.54	1044.1	-23.008	367.88	1658.2	12.802	344.31	1295	-163.25	304.39	1521.9	89.709	315.66	1012.1	425.81	363.98	884.45	427.12	192.35	1030.4	155.21	190.56	1299	93.838	366.84	707.01	-49.137	191.91	1029.8	75.935	380.02	1469.5	-70.682	289.17	71.315	49.315	371.39	1670.7	154.06	322.75	1310.9	359.05	284.05	1131.7	-114.09	550.52	1647.8	53.947	278.35	1161.3	401.83	352.13	289.99	4.951	462.07	882.77	-128.16	214.01	1440.8	221.21	551.13	1653.4	130.53	310.08	56.504	208.75	253.94	1142.4	324.23	331.86	328.44	267.63	438.6	509.68	289.81	116.84	186.2	169.22	222.67	84.369	254.15	177.06	183.92	225.51	375.24	524.35	116.57	422.87	385.05	215.17	436.55	618.72	299.49	471.27	1257.3	106.84	359.39	318.71	203.45	400.24	1049.1	265.82	293.72	253.7	193.27	270.54	72.711	183.38	466.83	524.08	160.33	376.44	288.62	77.546	418.18	710.72	309.77	366.6	798.6	-67.008	232.03	29.882	96.449	320.42	93.774	128.94	225.79	185.35	151.07	391.45	804.22	310.69	420.48	900.11	378.83
320	1.6	428.34	861.6	434.39	324.55	1140.6	-184.57	359.23	991.87	-187.18	402.65	866.31	-168.98	371.15	616.87	-29.098	363.2	512.99	-12.944	397.3	375.98	69.81	354.59	194.83	82.512	492.15	729.94	278.71	476.51	832.6	-180.54	437.1	714.29	-25.862	386.34	22.366	13.594	437.09	40.063	95.632	490.51	30.567	78.48	410.65	1044.7	-22.992	373.48	1658.6	12.96	350.96	1295.9	-163.35	309.98	1522.4	89.863	318.11	1012.5	426.04	365.07	884.26	427.7	197.92	1030.8	155.45	196.14	1299.4	93.797	369.87	707.2	-49.01	197.33	1030.4	76.103	385.79	1470.3	-70.442	289.17	71.446	49.338	377.11	1671.1	154.21	327.51	1311.2	359.09	291.52	1132.2	-114.44	556.15	1648.1	53.944	282.39	1161.8	401.63	352.52	290.04	4.9695	472.46	885.22	-127.76	219.54	1441.2	221.17	556.82	1653.7	130.53	329.81	55.733	209.26	258.12	1143.1	324.09	345.35	327.69	267.65	448.88	511.15	289.56	133.03	180.53	169.55	241.67	81.786	254.67	193.5	179.93	225.78	376.44	524.33	116.64	435.11	386.36	215.49	445.73	620.36	299.36	476.8	1257.7	106.72	372.99	318.5	203.35	406.15	1049.8	265.3	308.62	252.22	193.27	289.8	71.134	183.91	476.46	525.97	159.9	376.9	288.59	77.536	426.53	712.21	309.82	370.49	798.73	-66.962	232.05	30.01	96.498	320.43	93.842	128.95	242.06	182.41	151.33	398.79	805.38	310.74	421.86	899.14	379.62
